<svg width="30" height="32" viewBox="0 0 30 32" fill="none" xmlns="http://www.w3.org/2000/svg">
<path d="M19.75 3.91667V0.75M19.75 3.91667V7.08333M19.75 3.91667H12.625M0.75 13.4167V27.6667C0.75 28.5065 1.08363 29.312 1.6775 29.9058C2.27136 30.4997 3.07681 30.8333 3.91667 30.8333H26.0833C26.9232 30.8333 27.7286 30.4997 28.3225 29.9058C28.9164 29.312 29.25 28.5065 29.25 27.6667V13.4167M0.75 13.4167H29.25M0.75 13.4167V7.08333C0.75 6.24348 1.08363 5.43803 1.6775 4.84416C2.27136 4.2503 3.07681 3.91667 3.91667 3.91667H7.08333M29.25 13.4167V7.08333C29.25 6.24348 28.9164 5.43803 28.3225 4.84416C27.7286 4.2503 26.9232 3.91667 26.0833 3.91667H25.2917M7.08333 0.75V7.08333" stroke="black" stroke-width="1.5" stroke-linecap="round" stroke-linejoin="round"/>
</svg>
